<?xml version="1.0" standalone="no"?>
<svg xmlns="http://www.w3.org/2000/svg"
  xmlns:xlink="http://www.w3.org/1999/xlink" version="1.1"
  width="396.5px" height="240px" viewBox="0 0 39.65 24">

  <path id="inner_1_" fill="#FCFCFC"
    d="
      M12.19,23.14
      h4.75
      c1.38,0,2.49-1.11,2.49-2.49
      c0-0.51-0.15-0.98-0.41-1.37
      h1.3
      c1.38,0,2.49-1.11,2.49-2.49s-1.11-2.53-2.49-2.53
      h1.02
      c1.38,0,2.49-1.11,2.49-2.49s-1.11-2.49-2.49-2.49
      h14.96
      c1.37,0,2.49-1.11,2.49-2.49s-1.11-2.49-2.49-2.49
      H19.58
      C19,2.14,17.28,0.86,12.7,0.86
      c-4.79,0-6.55,3.42-7.87,4.73
      H0.86
      v13.23
      h3.68
      C6.29,21.97,8.47,23.14,12.19,23.14L12.19,23.14z"/>

  <path
    d="M16.95,24
      c1.85,0,3.35-1.5,3.35-3.35
      c0-0.17-0.02-0.34-0.04-0.51
      h0.07
      c1.85,0,3.35-1.5,3.35-3.35
      c0-0.79-0.27-1.51-0.72-2.08
      c1.03-0.57,1.74-1.67,1.74-2.93
      c0-0.59-0.16-1.15-0.43-1.63
      h12.04
      c1.85,0,3.35-1.5,3.35-3.35
      c0-1.85-1.5-3.35-3.35-3.35
      H20.2
      C19.26,1.07,16.91,0,12.7,0
      C8.36,0,6.22,2.6,4.94,4.16
      c0,0-0.29,0.33-0.5,0.57
      c-0.63,0-3.58,0-3.58,0
      C0.39,4.73,0,5.12,0,5.59
      v13.23
      c0,0.47,0.39,0.86,0.86,0.86
      c0,0,2.48,0,3.2,0
      C5.9,22.73,8.29,24,12.19,24
      L16.95,24z M12.19,22.28
      c-3.46,0-5.33-1.05-6.9-3.87
      c-0.15-0.27-0.44-0.44-0.75-0.44
      c0,0-1.81,0-2.82,0
      V6.45
      c1.06,0,3.11,0,3.11,0
      c0.25,0,0.44-0.06,0.61-0.25l0.83-0.95
      c1.23-1.49,2.91-3.53,6.43-3.53
      c3.45,0,4.9,0.74,5.57,1.72
      h-4.3
      c-0.48,0-0.86,0.38-0.86,0.86
      s0.39,0.86,0.86,0.86
      h22.34
      c0.9,0,1.63,0.73,1.63,1.63
      c0,0.9-0.73,1.63-1.63,1.63
      H18.83
      c-0.48,0-0.86,0.38-0.86,0.86
      c0,0.47,0.39,0.86,0.86,0.86
      h2.52
      c0.9,0,1.63,0.73,1.63,1.63s-0.73,1.63-1.63,1.63
      h-3.12
      c-0.48,0-0.86,0.38-0.86,0.86
      c0,0.47,0.39,0.86,0.86,0.86
      h2.11
      c0.88,0,1.63,0.76,1.63,1.67
      c0,0.9-0.73,1.63-1.63,1.63
      h-3.2
      c-0.48,0-0.86,0.39-0.86,0.86
      c0,0.47,0.39,0.86,0.86,0.86
      h1.36
      c0.05,0.16,0.09,0.34,0.09,0.51
      c0,0.9-0.73,1.63-1.63,1.63
      C16.95,22.28,12.19,22.28,12.19,22.28z"
    />

</svg>
